<mxfile host="drawio-plugin" modified="2021-08-10T08:50:24.009Z" agent="5.0 (Windows NT 6.2; Win64; x64) AppleWebKit/537.36 (KHTML, like Gecko) Chrome/89.0.4389.114 Safari/537.36" etag="-yqe71-62SCof1Hdr_Lr" version="14.7.4" type="embed"><diagram name="Page-1" id="e7e014a7-5840-1c2e-5031-d8a46d1fe8dd"><mxGraphModel dx="1034" dy="1174" grid="1" gridSize="10" guides="1" tooltips="1" connect="1" arrows="1" fold="1" page="0" pageScale="1" pageWidth="1169" pageHeight="826" background="#000000" math="0" shadow="0"><root><mxCell id="0"/><mxCell id="1" parent="0"/><mxCell id="5" value="" style="whiteSpace=wrap;html=1;" vertex="1" parent="1"><mxGeometry x="-50" y="-140" width="1190" height="1360" as="geometry"/></mxCell><mxCell id="6" value="" style="rounded=0;whiteSpace=wrap;html=1;" vertex="1" parent="1"><mxGeometry x="140" y="-31" width="780" height="1130" as="geometry"/></mxCell><mxCell id="7" value="" style="rounded=1;whiteSpace=wrap;html=1;dashed=1;strokeColor=#001DBC;fontColor=#ffffff;fillColor=#6666FF;" vertex="1" parent="1"><mxGeometry x="160" width="384" height="312" as="geometry"/></mxCell><mxCell id="8" value="" style="rounded=0;whiteSpace=wrap;html=1;fontSize=16;fontColor=#FFFFFF;strokeColor=#006900;" vertex="1" parent="1"><mxGeometry x="651" y="478" width="240" height="490" as="geometry"/></mxCell><mxCell id="9" style="edgeStyle=orthogonalEdgeStyle;rounded=1;orthogonalLoop=1;jettySize=auto;html=1;exitX=0.5;exitY=1;exitDx=0;exitDy=0;entryX=0.5;entryY=0;entryDx=0;entryDy=0;dashed=1;endArrow=open;endFill=0;" edge="1" parent="1" source="10" target="96"><mxGeometry relative="1" as="geometry"/></mxCell><mxCell id="10" value="" style="whiteSpace=wrap;html=1;dashed=1;fillColor=#00FFFF;rounded=0;glass=0;sketch=0;shadow=0;" vertex="1" parent="1"><mxGeometry x="661" y="545" width="220" height="305" as="geometry"/></mxCell><mxCell id="11" value="" style="whiteSpace=wrap;html=1;dashed=1;fillColor=#5050C7;" vertex="1" parent="1"><mxGeometry x="667" y="601" width="208" height="220" as="geometry"/></mxCell><mxCell id="12" value="" style="rounded=0;whiteSpace=wrap;html=1;fontSize=16;fontColor=#FFFFFF;strokeColor=#006900;" vertex="1" parent="1"><mxGeometry x="338" y="478" width="240" height="490" as="geometry"/></mxCell><mxCell id="13" value="" style="rounded=0;whiteSpace=wrap;html=1;dashed=1;strokeColor=#006EAF;fontColor=#ffffff;fillColor=#1EB6FF;" vertex="1" parent="1"><mxGeometry x="348" y="650" width="220" height="310" as="geometry"/></mxCell><mxCell id="14" value="" style="whiteSpace=wrap;html=1;dashed=1;fillColor=#5050C7;" vertex="1" parent="1"><mxGeometry x="354" y="707" width="208" height="223" as="geometry"/></mxCell><mxCell id="15" value="Vulkan SDK" style="rounded=0;whiteSpace=wrap;html=1;fillColor=#BABABA;" vertex="1" parent="1"><mxGeometry x="139" y="-120" width="120" height="50" as="geometry"/></mxCell><mxCell id="16" value="Unity Native Plugin" style="rounded=1;whiteSpace=wrap;html=1;" vertex="1" parent="1"><mxGeometry x="691" y="1117" width="140" height="50" as="geometry"/></mxCell><mxCell id="17" style="edgeStyle=orthogonalEdgeStyle;rounded=1;orthogonalLoop=1;jettySize=auto;html=1;exitX=0.5;exitY=1;exitDx=0;exitDy=0;entryX=0.5;entryY=0;entryDx=0;entryDy=0;endArrow=block;endFill=1;dashed=1;strokeColor=#005200;" edge="1" parent="1" source="18" target="143"><mxGeometry relative="1" as="geometry"><Array as="points"><mxPoint x="860" y="20"/><mxPoint x="860" y="20"/></Array></mxGeometry></mxCell><mxCell id="18" value="Node Editor" style="rounded=0;whiteSpace=wrap;html=1;fillColor=#BABABA;" vertex="1" parent="1"><mxGeometry x="800" y="-120" width="120" height="50" as="geometry"/></mxCell><mxCell id="19" value="CMake" style="ellipse;whiteSpace=wrap;html=1;" vertex="1" parent="1"><mxGeometry x="852" y="1122" width="70" height="40" as="geometry"/></mxCell><mxCell id="20" style="edgeStyle=orthogonalEdgeStyle;rounded=0;orthogonalLoop=1;jettySize=auto;html=1;exitX=1;exitY=0.5;exitDx=0;exitDy=0;" edge="1" parent="1" source="53" target="30"><mxGeometry relative="1" as="geometry"/></mxCell><mxCell id="21" style="edgeStyle=orthogonalEdgeStyle;rounded=1;orthogonalLoop=1;jettySize=auto;html=1;exitX=0;exitY=0.5;exitDx=0;exitDy=0;entryX=0;entryY=0.5;entryDx=0;entryDy=0;dashed=1;endArrow=block;endFill=1;strokeColor=#005200;" edge="1" parent="1" source="15" target="82"><mxGeometry relative="1" as="geometry"><mxPoint x="310" y="170" as="targetPoint"/><Array as="points"><mxPoint x="40" y="-95"/><mxPoint x="40" y="286"/></Array></mxGeometry></mxCell><mxCell id="22" style="edgeStyle=orthogonalEdgeStyle;rounded=0;orthogonalLoop=1;jettySize=auto;html=1;exitX=1;exitY=0.5;exitDx=0;exitDy=0;" edge="1" parent="1" source="54" target="25"><mxGeometry relative="1" as="geometry"/></mxCell><mxCell id="23" style="edgeStyle=orthogonalEdgeStyle;rounded=1;orthogonalLoop=1;jettySize=auto;html=1;exitX=1;exitY=0.5;exitDx=0;exitDy=0;entryX=0.5;entryY=0;entryDx=0;entryDy=0;" edge="1" parent="1" source="25" target="32"><mxGeometry relative="1" as="geometry"/></mxCell><mxCell id="24" style="edgeStyle=orthogonalEdgeStyle;rounded=1;orthogonalLoop=1;jettySize=auto;html=1;exitX=0.75;exitY=1;exitDx=0;exitDy=0;entryX=0.5;entryY=0;entryDx=0;entryDy=0;fontColor=#7F00FF;" edge="1" parent="1" source="25" target="26"><mxGeometry relative="1" as="geometry"/></mxCell><mxCell id="25" value="MainWindow" style="rounded=1;whiteSpace=wrap;html=1;fillColor=#d80073;strokeColor=#A50040;fontColor=#ffffff;fontStyle=3" vertex="1" parent="1"><mxGeometry x="406.5" y="9" width="100" height="30" as="geometry"/></mxCell><mxCell id="26" value="QVulkanInstance" style="ellipse;whiteSpace=wrap;html=1;" vertex="1" parent="1"><mxGeometry x="580" y="105" width="110" height="40" as="geometry"/></mxCell><mxCell id="27" style="edgeStyle=orthogonalEdgeStyle;rounded=1;orthogonalLoop=1;jettySize=auto;html=1;exitX=1;exitY=0.25;exitDx=0;exitDy=0;entryX=0.5;entryY=1;entryDx=0;entryDy=0;" edge="1" parent="1" source="30" target="32"><mxGeometry relative="1" as="geometry"/></mxCell><mxCell id="28" style="edgeStyle=orthogonalEdgeStyle;rounded=1;orthogonalLoop=1;jettySize=auto;html=1;exitX=0.75;exitY=0;exitDx=0;exitDy=0;entryX=0.5;entryY=1;entryDx=0;entryDy=0;fontColor=#7F00FF;" edge="1" parent="1" source="30" target="26"><mxGeometry relative="1" as="geometry"/></mxCell><mxCell id="29" style="edgeStyle=orthogonalEdgeStyle;rounded=1;orthogonalLoop=1;jettySize=auto;html=1;exitX=1;exitY=0.75;exitDx=0;exitDy=0;entryX=0.5;entryY=0;entryDx=0;entryDy=0;fontColor=#F0F0F0;startArrow=classic;startFill=1;endArrow=classic;endFill=1;fillColor=#BABABA;" edge="1" parent="1" source="30" target="42"><mxGeometry relative="1" as="geometry"><mxPoint x="613" y="314" as="targetPoint"/><Array as="points"><mxPoint x="613" y="236"/></Array></mxGeometry></mxCell><mxCell id="30" value="VulkanWindow" style="rounded=1;whiteSpace=wrap;html=1;fillColor=#d80073;strokeColor=#A50040;fontColor=#ffffff;fontStyle=3" vertex="1" parent="1"><mxGeometry x="406.5" y="213" width="100" height="30" as="geometry"/></mxCell><mxCell id="31" value="" style="endArrow=none;dashed=1;html=1;entryX=1;entryY=0.5;entryDx=0;entryDy=0;exitX=1;exitY=0;exitDx=0;exitDy=0;startArrow=open;startFill=0;" edge="1" parent="1" source="122" target="26"><mxGeometry width="50" height="50" relative="1" as="geometry"><mxPoint x="560" y="430" as="sourcePoint"/><mxPoint x="610" y="380" as="targetPoint"/><Array as="points"><mxPoint x="740" y="410"/><mxPoint x="740" y="210"/></Array></mxGeometry></mxCell><mxCell id="32" value="QWidgets" style="rounded=1;whiteSpace=wrap;html=1;" vertex="1" parent="1"><mxGeometry x="730" y="110" width="70.5" height="30" as="geometry"/></mxCell><mxCell id="33" value="" style="endArrow=classic;html=1;exitX=0.25;exitY=1;exitDx=0;exitDy=0;entryX=0.25;entryY=0;entryDx=0;entryDy=0;edgeStyle=orthogonalEdgeStyle;" edge="1" parent="1" source="25" target="30"><mxGeometry relative="1" as="geometry"><mxPoint x="500" y="-30" as="sourcePoint"/><mxPoint x="690" y="-70" as="targetPoint"/><Array as="points"><mxPoint x="432" y="120"/><mxPoint x="432" y="120"/></Array></mxGeometry></mxCell><mxCell id="34" value="Instantiate / Inject" style="text;html=1;resizable=0;autosize=1;align=center;verticalAlign=middle;points=[];fillColor=none;strokeColor=none;rounded=0;rotation=90;fontColor=#F0F0F0;fontStyle=0" vertex="1" parent="1"><mxGeometry x="389" y="115" width="110" height="20" as="geometry"/></mxCell><mxCell id="35" value="Set" style="text;html=1;resizable=0;autosize=1;align=center;verticalAlign=middle;points=[];fillColor=none;strokeColor=none;rounded=0;" vertex="1" parent="1"><mxGeometry x="562" y="154" width="30" height="20" as="geometry"/></mxCell><mxCell id="36" value="Instantiate" style="text;html=1;resizable=0;autosize=1;align=center;verticalAlign=middle;points=[];fillColor=none;strokeColor=none;rounded=0;" vertex="1" parent="1"><mxGeometry x="655" y="27" width="70" height="20" as="geometry"/></mxCell><mxCell id="37" value="Send to" style="text;html=1;resizable=0;autosize=1;align=center;verticalAlign=middle;points=[];fillColor=none;strokeColor=none;rounded=0;" vertex="1" parent="1"><mxGeometry x="655" y="197" width="60" height="20" as="geometry"/></mxCell><mxCell id="38" style="edgeStyle=orthogonalEdgeStyle;rounded=1;orthogonalLoop=1;jettySize=auto;html=1;exitX=0.5;exitY=0;exitDx=0;exitDy=0;entryX=0.25;entryY=1;entryDx=0;entryDy=0;" edge="1" parent="1" source="39" target="139"><mxGeometry relative="1" as="geometry"/></mxCell><mxCell id="39" value="SPIRV Compiler" style="rounded=1;whiteSpace=wrap;html=1;fillColor=#d80073;strokeColor=#A50040;fontColor=#ffffff;fontStyle=3" vertex="1" parent="1"><mxGeometry x="160.5509433962264" y="623.5" width="115.09433962264151" height="30" as="geometry"/></mxCell><mxCell id="40" style="edgeStyle=orthogonalEdgeStyle;rounded=1;orthogonalLoop=1;jettySize=auto;html=1;entryX=0.5;entryY=1;entryDx=0;entryDy=0;exitX=0.5;exitY=0;exitDx=0;exitDy=0;" edge="1" parent="1" source="41" target="39"><mxGeometry x="140" y="48" as="geometry"/></mxCell><mxCell id="41" value="Vulkan Compatible GLSL Shaders" style="ellipse;whiteSpace=wrap;html=1;" vertex="1" parent="1"><mxGeometry x="156.19" y="1011" width="123.81" height="68" as="geometry"/></mxCell><mxCell id="42" value="Renderer" style="rounded=1;whiteSpace=wrap;html=1;fillColor=#d80073;strokeColor=#A50040;fontColor=#ffffff;fontStyle=3" vertex="1" parent="1"><mxGeometry x="578" y="420" width="70" height="30" as="geometry"/></mxCell><mxCell id="43" style="rounded=1;orthogonalLoop=1;jettySize=auto;html=1;exitX=1;exitY=0.75;exitDx=0;exitDy=0;entryX=0;entryY=0.5;entryDx=0;entryDy=0;elbow=vertical;edgeStyle=orthogonalEdgeStyle;" edge="1" parent="1" source="42" target="90"><mxGeometry relative="1" as="geometry"/></mxCell><mxCell id="44" style="edgeStyle=orthogonalEdgeStyle;rounded=1;orthogonalLoop=1;jettySize=auto;html=1;exitX=1;exitY=0.5;exitDx=0;exitDy=0;entryX=0.25;entryY=0;entryDx=0;entryDy=0;startArrow=none;" edge="1" parent="1" source="109" target="42"><mxGeometry x="140" y="48" as="geometry"/></mxCell><mxCell id="45" style="orthogonalLoop=1;jettySize=auto;html=1;exitX=1;exitY=0.5;exitDx=0;exitDy=0;entryX=0.25;entryY=0;entryDx=0;entryDy=0;rounded=1;" edge="1" parent="1" source="122" target="61"><mxGeometry relative="1" as="geometry"><mxPoint x="774.5" y="601" as="targetPoint"/><Array as="points"><mxPoint x="740" y="520"/></Array></mxGeometry></mxCell><mxCell id="46" style="edgeStyle=orthogonalEdgeStyle;rounded=0;orthogonalLoop=1;jettySize=auto;html=1;exitX=0.5;exitY=1;exitDx=0;exitDy=0;entryX=0.5;entryY=0;entryDx=0;entryDy=0;" edge="1" parent="1" source="42" target="122"><mxGeometry x="140" y="48" as="geometry"/></mxCell><mxCell id="47" style="edgeStyle=orthogonalEdgeStyle;rounded=1;orthogonalLoop=1;jettySize=auto;html=1;exitX=0;exitY=0.5;exitDx=0;exitDy=0;entryX=1;entryY=0.5;entryDx=0;entryDy=0;" edge="1" parent="1" source="168" target="41"><mxGeometry x="140" y="48" as="geometry"/></mxCell><mxCell id="48" style="edgeStyle=orthogonalEdgeStyle;rounded=1;orthogonalLoop=1;jettySize=auto;html=1;exitX=0;exitY=0.5;exitDx=0;exitDy=0;entryX=1;entryY=0.5;entryDx=0;entryDy=0;endArrow=classic;endFill=1;" edge="1" parent="1" source="49" target="168"><mxGeometry relative="1" as="geometry"/></mxCell><mxCell id="49" value="Create SDF Graph&lt;br&gt;(Dynamic)" style="rhombus;whiteSpace=wrap;html=1;" vertex="1" parent="1"><mxGeometry x="543.5" y="1000" width="139" height="90" as="geometry"/></mxCell><mxCell id="50" value="&lt;span style=&quot;font-family: &amp;quot;helvetica&amp;quot; ; text-align: center&quot;&gt;Qt Vulkan App&lt;/span&gt;" style="text;whiteSpace=wrap;html=1;fontStyle=1" vertex="1" parent="1"><mxGeometry x="140" y="-60" width="90" height="30" as="geometry"/></mxCell><mxCell id="51" style="edgeStyle=orthogonalEdgeStyle;curved=1;rounded=0;orthogonalLoop=1;jettySize=auto;html=1;exitX=0.5;exitY=0;exitDx=0;exitDy=0;entryX=0.55;entryY=0.95;entryDx=0;entryDy=0;entryPerimeter=0;fontColor=#5050C7;endArrow=none;endFill=0;dashed=1;" edge="1" parent="1" source="53" target="84"><mxGeometry relative="1" as="geometry"/></mxCell><mxCell id="52" style="edgeStyle=orthogonalEdgeStyle;rounded=1;orthogonalLoop=1;jettySize=auto;html=1;exitX=0.25;exitY=1;exitDx=0;exitDy=0;entryX=0;entryY=0.5;entryDx=0;entryDy=0;dashed=1;endArrow=none;endFill=0;startArrow=open;startFill=0;" edge="1" parent="1" source="53" target="109"><mxGeometry relative="1" as="geometry"/></mxCell><mxCell id="53" value="QVulkanWindow" style="rounded=1;whiteSpace=wrap;html=1;" vertex="1" parent="1"><mxGeometry x="280" y="213" width="100" height="30" as="geometry"/></mxCell><mxCell id="54" value="QMainWindow" style="rounded=1;whiteSpace=wrap;html=1;" vertex="1" parent="1"><mxGeometry x="281" y="9" width="100" height="30" as="geometry"/></mxCell><mxCell id="55" style="edgeStyle=orthogonalEdgeStyle;rounded=1;orthogonalLoop=1;jettySize=auto;html=1;exitX=0.5;exitY=1;exitDx=0;exitDy=0;entryX=0.5;entryY=0;entryDx=0;entryDy=0;" edge="1" parent="1" source="71" target="73"><mxGeometry x="140" y="48" as="geometry"><mxPoint x="458" y="730" as="targetPoint"/></mxGeometry></mxCell><mxCell id="56" value="Instantiate" style="text;html=1;resizable=0;autosize=1;align=center;verticalAlign=middle;points=[];fillColor=none;strokeColor=none;rounded=0;" vertex="1" parent="1"><mxGeometry x="544" y="74" width="70" height="20" as="geometry"/></mxCell><mxCell id="57" value="" style="shape=flexArrow;endArrow=classic;html=1;fontSize=16;endWidth=32;endSize=9;width=28;fillColor=#b1ddf0;strokeColor=#10739e;" edge="1" parent="1"><mxGeometry width="50" height="50" relative="1" as="geometry"><mxPoint x="585.25" y="711" as="sourcePoint"/><mxPoint x="645.25" y="711" as="targetPoint"/></mxGeometry></mxCell><mxCell id="58" value="&lt;font color=&quot;#6666ff&quot;&gt;Command Buffers&lt;/font&gt;" style="text;html=1;strokeColor=none;fillColor=none;align=center;verticalAlign=middle;whiteSpace=wrap;rounded=0;rotation=0;fontStyle=1;fontSize=16;" vertex="1" parent="1"><mxGeometry x="700.25" y="825" width="141.5" height="20" as="geometry"/></mxCell><mxCell id="59" value="Resource Initializers" style="text;html=1;align=center;verticalAlign=middle;whiteSpace=wrap;rounded=0;dashed=1;fontSize=16;fontStyle=1" vertex="1" parent="1"><mxGeometry x="375" y="451" width="166" height="30" as="geometry"/></mxCell><mxCell id="60" style="edgeStyle=orthogonalEdgeStyle;rounded=0;orthogonalLoop=1;jettySize=auto;html=1;exitX=0.5;exitY=1;exitDx=0;exitDy=0;entryX=0.5;entryY=0;entryDx=0;entryDy=0;" edge="1" parent="1" source="61" target="67"><mxGeometry relative="1" as="geometry"/></mxCell><mxCell id="61" value="Create Frame &lt;br&gt;(CmdBuffer Generation)" style="rounded=1;whiteSpace=wrap;html=1;" vertex="1" parent="1"><mxGeometry x="705" y="623.5" width="139" height="38" as="geometry"/></mxCell><mxCell id="62" value="&lt;font color=&quot;#0000ff&quot;&gt;Async&lt;br&gt;Wait&lt;br&gt;&lt;/font&gt;" style="text;html=1;strokeColor=none;fillColor=none;align=center;verticalAlign=middle;whiteSpace=wrap;rounded=0;dashed=1;fontSize=16;fontColor=#FFFFFF;rotation=-45;" vertex="1" parent="1"><mxGeometry x="670" y="562" width="40" height="20" as="geometry"/></mxCell><mxCell id="63" value="Draw Calls" style="rounded=1;whiteSpace=wrap;html=1;" vertex="1" parent="1"><mxGeometry x="739.5" y="770" width="70" height="20" as="geometry"/></mxCell><mxCell id="64" style="edgeStyle=orthogonalEdgeStyle;rounded=0;orthogonalLoop=1;jettySize=auto;html=1;exitX=0.5;exitY=1;exitDx=0;exitDy=0;entryX=0.5;entryY=0;entryDx=0;entryDy=0;" edge="1" parent="1" source="65" target="63"><mxGeometry relative="1" as="geometry"/></mxCell><mxCell id="65" value="Render Pass" style="rounded=1;whiteSpace=wrap;html=1;" vertex="1" parent="1"><mxGeometry x="734.5" y="734" width="80" height="21" as="geometry"/></mxCell><mxCell id="66" style="edgeStyle=orthogonalEdgeStyle;rounded=0;orthogonalLoop=1;jettySize=auto;html=1;exitX=0.5;exitY=1;exitDx=0;exitDy=0;entryX=0.5;entryY=0;entryDx=0;entryDy=0;" edge="1" parent="1" source="67" target="65"><mxGeometry relative="1" as="geometry"/></mxCell><mxCell id="67" value="Create Buffers" style="rounded=1;whiteSpace=wrap;html=1;" vertex="1" parent="1"><mxGeometry x="730" y="693.5" width="89" height="21" as="geometry"/></mxCell><mxCell id="68" value="CPU&lt;br&gt;Worker Thread" style="text;html=1;strokeColor=none;fillColor=none;align=center;verticalAlign=middle;whiteSpace=wrap;rounded=0;dashed=1;dashPattern=1 1;" vertex="1" parent="1"><mxGeometry x="518" y="652" width="50" height="50" as="geometry"/></mxCell><mxCell id="69" value="&lt;font color=&quot;#0000ff&quot;&gt;Async&lt;br&gt;Wait&lt;/font&gt;" style="text;html=1;strokeColor=none;fillColor=none;align=center;verticalAlign=middle;whiteSpace=wrap;rounded=0;dashed=1;fontSize=16;fontColor=#FFFFFF;rotation=-45;" vertex="1" parent="1"><mxGeometry x="359" y="667" width="40" height="20" as="geometry"/></mxCell><mxCell id="70" value="Material Pipeline" style="text;html=1;strokeColor=none;fillColor=none;align=center;verticalAlign=middle;whiteSpace=wrap;rounded=0;rotation=0;fontStyle=1;fontSize=16;fontColor=#5050C7;" vertex="1" parent="1"><mxGeometry x="392" y="935" width="132" height="20" as="geometry"/></mxCell><mxCell id="71" value="Create Pipeline Cache" style="rounded=1;whiteSpace=wrap;html=1;" vertex="1" parent="1"><mxGeometry x="392.49" y="613" width="131" height="24" as="geometry"/></mxCell><mxCell id="72" style="edgeStyle=orthogonalEdgeStyle;rounded=1;orthogonalLoop=1;jettySize=auto;html=1;exitX=0.5;exitY=1;exitDx=0;exitDy=0;fontColor=#9933FF;startArrow=none;startFill=0;endArrow=classic;endFill=1;fillColor=#BABABA;entryX=0.5;entryY=0;entryDx=0;entryDy=0;" edge="1" parent="1" source="73" target="105"><mxGeometry relative="1" as="geometry"/></mxCell><mxCell id="73" value="Create Pipeline Layouts&lt;br&gt;(per Material)" style="rounded=1;whiteSpace=wrap;html=1;" vertex="1" parent="1"><mxGeometry x="388.75" y="722" width="138.5" height="33" as="geometry"/></mxCell><mxCell id="74" value="Create Pipeline&lt;br&gt;(per Material)" style="rounded=1;whiteSpace=wrap;html=1;" vertex="1" parent="1"><mxGeometry x="388.75" y="880" width="138.5" height="40" as="geometry"/></mxCell><mxCell id="75" value="Material" style="ellipse;whiteSpace=wrap;html=1;fontSize=16;fontColor=#FFFFFF;fillColor=#9038DE;" vertex="1" parent="1"><mxGeometry x="279" y="707" width="80" height="40" as="geometry"/></mxCell><mxCell id="76" value="Material" style="ellipse;whiteSpace=wrap;html=1;fontSize=16;fontColor=#FFFFFF;fillColor=#9038DE;" vertex="1" parent="1"><mxGeometry x="279" y="759" width="80" height="40" as="geometry"/></mxCell><mxCell id="77" value="Material" style="ellipse;whiteSpace=wrap;html=1;fontSize=16;fontColor=#FFFFFF;fillColor=#9038DE;" vertex="1" parent="1"><mxGeometry x="279" y="808" width="80" height="40" as="geometry"/></mxCell><mxCell id="78" value="Material" style="ellipse;whiteSpace=wrap;html=1;fontSize=16;fontColor=#FFFFFF;fillColor=#9038DE;" vertex="1" parent="1"><mxGeometry x="279" y="858" width="80" height="40" as="geometry"/></mxCell><mxCell id="79" value="Draw Frame" style="text;html=1;align=center;verticalAlign=middle;whiteSpace=wrap;rounded=0;dashed=1;fontSize=16;fontStyle=1" vertex="1" parent="1"><mxGeometry x="687.5" y="451" width="166" height="30" as="geometry"/></mxCell><mxCell id="80" value="CPU&lt;br&gt;Worker Thread" style="text;html=1;strokeColor=none;fillColor=none;align=center;verticalAlign=middle;whiteSpace=wrap;rounded=0;dashed=1;dashPattern=1 1;" vertex="1" parent="1"><mxGeometry x="831" y="545" width="50" height="50" as="geometry"/></mxCell><mxCell id="81" style="edgeStyle=orthogonalEdgeStyle;rounded=1;orthogonalLoop=1;jettySize=auto;html=1;exitX=0.5;exitY=0;exitDx=0;exitDy=0;entryX=0;entryY=0.5;entryDx=0;entryDy=0;dashed=1;fontColor=#F0F0F0;startArrow=none;startFill=0;endArrow=open;endFill=0;fillColor=#BABABA;" edge="1" parent="1" source="82" target="53"><mxGeometry relative="1" as="geometry"/></mxCell><mxCell id="82" value="QWindow" style="rounded=1;whiteSpace=wrap;html=1;dashed=1;fillColor=#BABABA;" vertex="1" parent="1"><mxGeometry x="193" y="271" width="100" height="30" as="geometry"/></mxCell><mxCell id="83" value="&lt;ul&gt;&lt;li&gt;&lt;span&gt;&lt;i&gt;&lt;b&gt;Vulkan Device&lt;/b&gt;&lt;/i&gt;&lt;/span&gt;&lt;/li&gt;&lt;li&gt;&lt;span&gt;&lt;i&gt;&lt;b&gt;Graphics Queue&lt;/b&gt;&lt;/i&gt;&lt;/span&gt;&lt;/li&gt;&lt;li&gt;&lt;span&gt;&lt;i&gt;&lt;b&gt;Command Pool &amp;amp; Buffer&lt;/b&gt;&lt;/i&gt;&lt;/span&gt;&lt;/li&gt;&lt;li&gt;&lt;i&gt;&lt;b&gt;&lt;span&gt;Depth-Stencil Image&amp;nbsp;&lt;/span&gt;&lt;/b&gt;&lt;/i&gt;&lt;/li&gt;&lt;li&gt;&lt;i&gt;&lt;b&gt;&lt;span&gt;D&lt;/span&gt;&lt;span&gt;ouble-Buffered FIFO Swapchain&lt;/span&gt;&lt;/b&gt;&lt;/i&gt;&lt;/li&gt;&lt;/ul&gt;" style="shape=note;whiteSpace=wrap;html=1;backgroundOutline=1;darkOpacity=0.05;align=left;dashed=1;fillColor=#BABABA;" vertex="1" parent="1"><mxGeometry x="50" y="118" width="243" height="90" as="geometry"/></mxCell><mxCell id="84" value="&lt;div&gt;&lt;span&gt;PhysicalDevice,&amp;nbsp;&lt;/span&gt;&lt;span&gt;Device,&amp;nbsp;&lt;/span&gt;&lt;/div&gt;&lt;div&gt;&lt;span&gt;Fence, Semaphore, QueueSubmit,&lt;/span&gt;&lt;/div&gt;&lt;div&gt;&lt;span&gt;CommandPool, RenderPass,&lt;/span&gt;&lt;/div&gt;&lt;div&gt;&lt;span&gt;CommandBuffer, FrameBuffer,&lt;/span&gt;&lt;/div&gt;&lt;div&gt;&lt;span&gt;Image, ImageView, ...&lt;/span&gt;&lt;/div&gt;" style="ellipse;shape=cloud;whiteSpace=wrap;html=1;dashed=1;align=center;fillColor=#BABABA;" vertex="1" parent="1"><mxGeometry x="160.55" y="29" width="250.1" height="150" as="geometry"/></mxCell><mxCell id="85" style="edgeStyle=orthogonalEdgeStyle;rounded=1;orthogonalLoop=1;jettySize=auto;html=1;exitX=0;exitY=0.5;exitDx=0;exitDy=0;entryX=0.5;entryY=1;entryDx=0;entryDy=0;dashed=1;endArrow=none;endFill=0;startArrow=open;startFill=0;" edge="1" parent="1" source="88" target="53"><mxGeometry relative="1" as="geometry"/></mxCell><mxCell id="86" style="edgeStyle=orthogonalEdgeStyle;rounded=1;orthogonalLoop=1;jettySize=auto;html=1;endArrow=open;endFill=0;dashed=1;startArrow=none;startFill=0;entryX=0.75;entryY=0;entryDx=0;entryDy=0;exitX=1;exitY=0.75;exitDx=0;exitDy=0;" edge="1" parent="1" source="88" target="93"><mxGeometry relative="1" as="geometry"><mxPoint x="510" y="346" as="sourcePoint"/><mxPoint x="860" y="459" as="targetPoint"/><Array as="points"><mxPoint x="850" y="293"/></Array></mxGeometry></mxCell><mxCell id="87" style="edgeStyle=orthogonalEdgeStyle;rounded=1;orthogonalLoop=1;jettySize=auto;html=1;exitX=1;exitY=0.25;exitDx=0;exitDy=0;entryX=1;entryY=0.5;entryDx=0;entryDy=0;startArrow=none;startFill=0;endArrow=open;endFill=0;dashed=1;" edge="1" parent="1" source="88" target="96"><mxGeometry relative="1" as="geometry"><Array as="points"><mxPoint x="910" y="276"/><mxPoint x="910" y="883"/></Array></mxGeometry></mxCell><mxCell id="88" value="QVulkanWindowPrivate" style="rounded=1;whiteSpace=wrap;html=1;dashed=1;fillColor=#BABABA;" vertex="1" parent="1"><mxGeometry x="366.5" y="267" width="143" height="34" as="geometry"/></mxCell><mxCell id="89" style="rounded=1;orthogonalLoop=1;jettySize=auto;html=1;exitX=0.5;exitY=1;exitDx=0;exitDy=0;entryX=0.75;entryY=0;entryDx=0;entryDy=0;startArrow=none;startFill=0;endArrow=classic;endFill=1;edgeStyle=orthogonalEdgeStyle;" edge="1" parent="1" source="90" target="61"><mxGeometry relative="1" as="geometry"/></mxCell><mxCell id="90" value="Start Next Frame" style="rounded=1;whiteSpace=wrap;html=1;" vertex="1" parent="1"><mxGeometry x="780" y="522" width="101" height="20" as="geometry"/></mxCell><mxCell id="91" style="edgeStyle=orthogonalEdgeStyle;rounded=1;orthogonalLoop=1;jettySize=auto;html=1;exitX=0.5;exitY=0;exitDx=0;exitDy=0;entryX=1;entryY=0.25;entryDx=0;entryDy=0;endArrow=open;endFill=0;dashed=1;" edge="1" parent="1" source="93" target="42"><mxGeometry relative="1" as="geometry"><Array as="points"><mxPoint x="831" y="428"/><mxPoint x="648" y="428"/></Array></mxGeometry></mxCell><mxCell id="92" style="edgeStyle=orthogonalEdgeStyle;rounded=1;orthogonalLoop=1;jettySize=auto;html=1;exitX=0.5;exitY=1;exitDx=0;exitDy=0;entryX=0.5;entryY=0;entryDx=0;entryDy=0;dashed=1;endArrow=open;endFill=0;" edge="1" parent="1" source="93" target="90"><mxGeometry relative="1" as="geometry"/></mxCell><mxCell id="93" value="Begin Frame" style="rounded=1;whiteSpace=wrap;html=1;dashed=1;fillColor=#BABABA;" vertex="1" parent="1"><mxGeometry x="790.75" y="487" width="79.5" height="20" as="geometry"/></mxCell><mxCell id="94" value="&lt;font style=&quot;font-size: 16px&quot; color=&quot;#6666ff&quot;&gt;&lt;b&gt;Window System&lt;/b&gt;&lt;/font&gt;" style="text;html=1;strokeColor=none;fillColor=none;align=center;verticalAlign=middle;whiteSpace=wrap;rounded=0;dashed=1;" vertex="1" parent="1"><mxGeometry x="279" y="-23" width="139" height="20" as="geometry"/></mxCell><mxCell id="95" style="rounded=1;orthogonalLoop=1;jettySize=auto;html=1;exitX=0.5;exitY=1;exitDx=0;exitDy=0;entryX=0.5;entryY=0;entryDx=0;entryDy=0;dashed=1;startArrow=none;startFill=0;endArrow=open;endFill=0;edgeStyle=orthogonalEdgeStyle;" edge="1" parent="1" source="96" target="98"><mxGeometry relative="1" as="geometry"/></mxCell><mxCell id="96" value="End Frame" style="rounded=1;whiteSpace=wrap;html=1;dashed=1;fillColor=#BABABA;" vertex="1" parent="1"><mxGeometry x="720" y="870" width="101" height="27" as="geometry"/></mxCell><mxCell id="97" value="Inject" style="text;html=1;strokeColor=none;fillColor=none;align=center;verticalAlign=middle;whiteSpace=wrap;rounded=0;dashed=1;rotation=30;fontColor=#F0F0F0;" vertex="1" parent="1"><mxGeometry x="311" y="278" width="40" height="20" as="geometry"/></mxCell><mxCell id="98" value="QueueSubmit Frame" style="rounded=1;whiteSpace=wrap;html=1;dashed=1;fillColor=#BABABA;" vertex="1" parent="1"><mxGeometry x="720" y="916" width="101" height="38" as="geometry"/></mxCell><mxCell id="99" value="" style="shape=flexArrow;endArrow=classic;startArrow=classic;html=1;dashed=1;fillColor=#BABABA;" edge="1" parent="1"><mxGeometry width="100" height="100" relative="1" as="geometry"><mxPoint x="940" y="953" as="sourcePoint"/><mxPoint x="940" y="480" as="targetPoint"/></mxGeometry></mxCell><mxCell id="100" value="&lt;b&gt;GPU - CPU&amp;nbsp;&lt;br&gt;&lt;/b&gt;&lt;b&gt;Sync&lt;br&gt;(with Fences &amp;amp; &lt;br&gt;Semaphores)&lt;/b&gt;" style="text;html=1;strokeColor=none;fillColor=none;align=center;verticalAlign=middle;whiteSpace=wrap;rounded=0;dashed=1;rotation=0;" vertex="1" parent="1"><mxGeometry x="950" y="660" width="90" height="63.5" as="geometry"/></mxCell><mxCell id="101" value="WaitForFences" style="text;html=1;strokeColor=none;fillColor=none;align=center;verticalAlign=middle;whiteSpace=wrap;rounded=0;dashed=1;" vertex="1" parent="1"><mxGeometry x="960" y="489.5" width="90" height="20" as="geometry"/></mxCell><mxCell id="102" value="ResetFences" style="text;html=1;strokeColor=none;fillColor=none;align=center;verticalAlign=middle;whiteSpace=wrap;rounded=0;dashed=1;" vertex="1" parent="1"><mxGeometry x="960" y="513" width="90" height="20" as="geometry"/></mxCell><mxCell id="103" value="Queue Submission" style="text;html=1;strokeColor=none;fillColor=none;align=center;verticalAlign=middle;whiteSpace=wrap;rounded=0;dashed=1;" vertex="1" parent="1"><mxGeometry x="960" y="919" width="80" height="20" as="geometry"/></mxCell><mxCell id="104" style="edgeStyle=orthogonalEdgeStyle;rounded=1;orthogonalLoop=1;jettySize=auto;html=1;exitX=0.5;exitY=1;exitDx=0;exitDy=0;entryX=0.5;entryY=0;entryDx=0;entryDy=0;fontColor=#9933FF;startArrow=none;startFill=0;endArrow=classic;endFill=1;fillColor=#BABABA;dashed=1;" edge="1" parent="1" source="105" target="125"><mxGeometry relative="1" as="geometry"/></mxCell><mxCell id="105" value="Set Shader Stages&lt;br&gt;(per Material)" style="rounded=1;whiteSpace=wrap;html=1;" vertex="1" parent="1"><mxGeometry x="397.75" y="773" width="120.5" height="36" as="geometry"/></mxCell><mxCell id="106" value="" style="endArrow=none;dashed=1;html=1;fillColor=#BABABA;fontStyle=3;fontColor=#990000;rounded=0;strokeWidth=4;" edge="1" parent="1"><mxGeometry width="50" height="50" relative="1" as="geometry"><mxPoint x="-25" y="324" as="sourcePoint"/><mxPoint x="1125" y="324" as="targetPoint"/></mxGeometry></mxCell><mxCell id="107" value="&lt;font style=&quot;font-size: 45px&quot;&gt;&lt;b&gt;WINDOW&lt;/b&gt;&lt;/font&gt;" style="text;html=1;strokeColor=none;fillColor=none;align=center;verticalAlign=middle;whiteSpace=wrap;rounded=0;dashed=1;rotation=-90;" vertex="1" parent="1"><mxGeometry x="-115" y="60" width="225" height="50" as="geometry"/></mxCell><mxCell id="108" value="&lt;font style=&quot;font-size: 45px&quot;&gt;&lt;b&gt;RENDERER&lt;/b&gt;&lt;/font&gt;" style="text;html=1;strokeColor=none;fillColor=none;align=center;verticalAlign=middle;whiteSpace=wrap;rounded=0;dashed=1;rotation=-90;" vertex="1" parent="1"><mxGeometry x="-132" y="738.5" width="263" height="50" as="geometry"/></mxCell><mxCell id="109" value="QVulkanWindowRenderer" style="rounded=1;whiteSpace=wrap;html=1;" vertex="1" parent="1"><mxGeometry x="363" y="347" width="150" height="23" as="geometry"/></mxCell><mxCell id="110" style="edgeStyle=orthogonalEdgeStyle;rounded=1;orthogonalLoop=1;jettySize=auto;html=1;exitX=0;exitY=0.25;exitDx=0;exitDy=0;dashed=1;endArrow=open;endFill=0;" edge="1" parent="1" source="111" target="75"><mxGeometry relative="1" as="geometry"/></mxCell><mxCell id="111" value="" style="rounded=1;whiteSpace=wrap;html=1;dashed=1;fillColor=#60a917;strokeColor=#2D7600;fontColor=#ffffff;" vertex="1" parent="1"><mxGeometry x="340" y="384.5" width="156" height="67" as="geometry"/></mxCell><mxCell id="112" value="CPU&lt;br&gt;Worker Thread" style="text;html=1;strokeColor=none;fillColor=none;align=center;verticalAlign=middle;whiteSpace=wrap;rounded=0;dashed=1;dashPattern=1 1;" vertex="1" parent="1"><mxGeometry x="449" y="383.5" width="50" height="50" as="geometry"/></mxCell><mxCell id="113" style="rounded=1;orthogonalLoop=1;jettySize=auto;html=1;exitX=1;exitY=0.75;exitDx=0;exitDy=0;entryX=0;entryY=0.75;entryDx=0;entryDy=0;endArrow=classic;endFill=1;edgeStyle=orthogonalEdgeStyle;" edge="1" parent="1" source="114" target="170"><mxGeometry relative="1" as="geometry"/></mxCell><mxCell id="114" value="Load Shader (Dynamic)" style="rounded=1;whiteSpace=wrap;html=1;" vertex="1" parent="1"><mxGeometry x="374.31" y="409" width="75.69" height="35" as="geometry"/></mxCell><mxCell id="115" value="&lt;font color=&quot;#0000ff&quot;&gt;Async&lt;/font&gt;" style="text;html=1;strokeColor=none;fillColor=none;align=center;verticalAlign=middle;whiteSpace=wrap;rounded=0;dashed=1;fontSize=16;fontColor=#FFFFFF;rotation=-45;" vertex="1" parent="1"><mxGeometry x="342" y="396.5" width="40" height="20" as="geometry"/></mxCell><mxCell id="116" value="" style="rounded=0;whiteSpace=wrap;html=1;dashed=1;fillColor=#60a917;strokeColor=#2D7600;fontColor=#ffffff;" vertex="1" parent="1"><mxGeometry x="348" y="545" width="220" height="50" as="geometry"/></mxCell><mxCell id="117" value="CPU&lt;br&gt;Worker Thread" style="text;html=1;strokeColor=none;fillColor=none;align=center;verticalAlign=middle;whiteSpace=wrap;rounded=0;dashed=1;dashPattern=1 1;" vertex="1" parent="1"><mxGeometry x="518" y="545" width="50" height="50" as="geometry"/></mxCell><mxCell id="118" value="&lt;font color=&quot;#0000ff&quot;&gt;Async&lt;/font&gt;" style="text;html=1;strokeColor=none;fillColor=none;align=center;verticalAlign=middle;whiteSpace=wrap;rounded=0;dashed=1;fontSize=16;fontColor=#FFFFFF;rotation=-45;" vertex="1" parent="1"><mxGeometry x="352" y="558" width="40" height="20" as="geometry"/></mxCell><mxCell id="119" value="Load Shaders (Static - .spv)" style="rounded=1;whiteSpace=wrap;html=1;" vertex="1" parent="1"><mxGeometry x="416.25" y="550" width="83.5" height="40" as="geometry"/></mxCell><mxCell id="120" style="edgeStyle=orthogonalEdgeStyle;rounded=1;orthogonalLoop=1;jettySize=auto;html=1;exitX=0;exitY=0.5;exitDx=0;exitDy=0;entryX=0.75;entryY=0;entryDx=0;entryDy=0;fontSize=16;fontColor=#FFFFFF;" edge="1" parent="1" source="122" target="119"><mxGeometry relative="1" as="geometry"/></mxCell><mxCell id="121" style="edgeStyle=orthogonalEdgeStyle;rounded=1;orthogonalLoop=1;jettySize=auto;html=1;exitX=0;exitY=0;exitDx=0;exitDy=0;entryX=0.75;entryY=1;entryDx=0;entryDy=0;dashed=1;endArrow=open;endFill=0;" edge="1" parent="1" source="122" target="139"><mxGeometry relative="1" as="geometry"/></mxCell><mxCell id="122" value="QVulkanDeviceFunctions" style="ellipse;whiteSpace=wrap;html=1;fontStyle=1;fontColor=#9933FF;" vertex="1" parent="1"><mxGeometry x="536.25" y="497" width="154" height="45" as="geometry"/></mxCell><mxCell id="123" style="edgeStyle=orthogonalEdgeStyle;rounded=0;orthogonalLoop=1;jettySize=auto;html=1;exitX=0.5;exitY=1;exitDx=0;exitDy=0;entryX=0.5;entryY=0;entryDx=0;entryDy=0;fontSize=16;fontColor=#FFFFFF;" edge="1" parent="1" source="119" target="71"><mxGeometry relative="1" as="geometry"><mxPoint x="458" y="618" as="targetPoint"/></mxGeometry></mxCell><mxCell id="124" style="edgeStyle=orthogonalEdgeStyle;rounded=0;orthogonalLoop=1;jettySize=auto;html=1;exitX=0.5;exitY=1;exitDx=0;exitDy=0;entryX=0.5;entryY=0;entryDx=0;entryDy=0;dashed=1;" edge="1" parent="1" source="125" target="74"><mxGeometry relative="1" as="geometry"/></mxCell><mxCell id="125" value="Set PSOs&lt;br&gt;(per Material)" style="rounded=1;whiteSpace=wrap;html=1;" vertex="1" parent="1"><mxGeometry x="411.99" y="827" width="92" height="36" as="geometry"/></mxCell><mxCell id="126" value="Abstract Class/Interface" style="text;html=1;resizable=0;autosize=1;align=center;verticalAlign=middle;points=[];fillColor=none;strokeColor=none;rounded=0;" vertex="1" parent="1"><mxGeometry x="368" y="326" width="140" height="20" as="geometry"/></mxCell><mxCell id="127" value="Instantiate" style="text;html=1;resizable=0;autosize=1;align=center;verticalAlign=middle;points=[];fillColor=none;strokeColor=none;rounded=0;rotation=90;" vertex="1" parent="1"><mxGeometry x="591" y="351" width="70" height="20" as="geometry"/></mxCell><mxCell id="128" value="" style="endArrow=classic;html=1;exitX=0.886;exitY=-0.05;exitDx=0;exitDy=0;exitPerimeter=0;" edge="1" parent="1"><mxGeometry x="623" y="351" width="50" height="50" as="geometry"><mxPoint x="639" y="337.98" as="sourcePoint"/><mxPoint x="639" y="380" as="targetPoint"/></mxGeometry></mxCell><mxCell id="129" style="edgeStyle=orthogonalEdgeStyle;rounded=1;orthogonalLoop=1;jettySize=auto;html=1;exitX=0.5;exitY=1;exitDx=0;exitDy=0;entryX=0.75;entryY=0;entryDx=0;entryDy=0;endArrow=classic;endFill=1;" edge="1" parent="1" source="131" target="42"><mxGeometry relative="1" as="geometry"><Array as="points"><mxPoint x="691" y="390"/><mxPoint x="631" y="390"/></Array></mxGeometry></mxCell><mxCell id="130" style="edgeStyle=orthogonalEdgeStyle;rounded=1;orthogonalLoop=1;jettySize=auto;html=1;exitX=0.5;exitY=0;exitDx=0;exitDy=0;entryX=1;entryY=0.5;entryDx=0;entryDy=0;endArrow=open;endFill=0;dashed=1;" edge="1" parent="1" source="131" target="30"><mxGeometry relative="1" as="geometry"/></mxCell><mxCell id="131" value="Camera" style="rounded=1;whiteSpace=wrap;html=1;fillColor=#d80073;strokeColor=#A50040;fontColor=#ffffff;fontStyle=3" vertex="1" parent="1"><mxGeometry x="658" y="305" width="65" height="33" as="geometry"/></mxCell><mxCell id="132" value="Inject" style="text;html=1;resizable=0;autosize=1;align=center;verticalAlign=middle;points=[];fillColor=none;strokeColor=none;rounded=0;rotation=0;" vertex="1" parent="1"><mxGeometry x="562" y="237" width="40" height="20" as="geometry"/></mxCell><mxCell id="133" value="" style="endArrow=classic;html=1;" edge="1" parent="1"><mxGeometry x="562" y="261" width="50" height="50" as="geometry"><mxPoint x="601" y="260" as="sourcePoint"/><mxPoint x="559" y="260" as="targetPoint"/></mxGeometry></mxCell><mxCell id="134" value="" style="shape=curlyBracket;whiteSpace=wrap;html=1;rounded=1;fillColor=#9038DE;" vertex="1" parent="1"><mxGeometry x="250" y="774" width="20" height="61" as="geometry"/></mxCell><mxCell id="135" value="" style="shape=curlyBracket;whiteSpace=wrap;html=1;rounded=1;fillColor=#9038DE;" vertex="1" parent="1"><mxGeometry x="250" y="730" width="20" height="150" as="geometry"/></mxCell><mxCell id="136" value="Structs" style="text;html=1;strokeColor=none;fillColor=none;align=center;verticalAlign=middle;whiteSpace=wrap;rounded=0;rotation=90;" vertex="1" parent="1"><mxGeometry x="220" y="794" width="40" height="20" as="geometry"/></mxCell><mxCell id="137" style="edgeStyle=orthogonalEdgeStyle;rounded=1;orthogonalLoop=1;jettySize=auto;html=1;exitX=0.5;exitY=1;exitDx=0;exitDy=0;entryX=0.25;entryY=0;entryDx=0;entryDy=0;" edge="1" parent="1" source="139" target="119"><mxGeometry relative="1" as="geometry"><Array as="points"><mxPoint x="235" y="520"/><mxPoint x="437" y="520"/></Array></mxGeometry></mxCell><mxCell id="138" style="rounded=1;orthogonalLoop=1;jettySize=auto;html=1;exitX=1;exitY=0.5;exitDx=0;exitDy=0;entryX=0;entryY=0.75;entryDx=0;entryDy=0;endArrow=classic;endFill=1;edgeStyle=orthogonalEdgeStyle;" edge="1" parent="1" source="139" target="114"><mxGeometry relative="1" as="geometry"/></mxCell><mxCell id="139" value="Shader" style="rounded=1;whiteSpace=wrap;html=1;fillColor=#d80073;strokeColor=#A50040;fontColor=#ffffff;fontStyle=3" vertex="1" parent="1"><mxGeometry x="199.99999999999997" y="420" width="70" height="30" as="geometry"/></mxCell><mxCell id="140" style="edgeStyle=orthogonalEdgeStyle;rounded=1;orthogonalLoop=1;jettySize=auto;html=1;exitX=1;exitY=0.5;exitDx=0;exitDy=0;endArrow=classic;endFill=1;entryX=1;entryY=0.5;entryDx=0;entryDy=0;" edge="1" parent="1" source="143" target="49"><mxGeometry relative="1" as="geometry"><Array as="points"><mxPoint x="1080" y="125"/><mxPoint x="1080" y="1045"/></Array></mxGeometry></mxCell><mxCell id="141" style="edgeStyle=orthogonalEdgeStyle;rounded=1;orthogonalLoop=1;jettySize=auto;html=1;exitX=0;exitY=0.5;exitDx=0;exitDy=0;entryX=1;entryY=0.5;entryDx=0;entryDy=0;startArrow=none;startFill=0;endArrow=classic;endFill=1;" edge="1" parent="1" source="143" target="32"><mxGeometry relative="1" as="geometry"/></mxCell><mxCell id="142" style="edgeStyle=orthogonalEdgeStyle;rounded=1;orthogonalLoop=1;jettySize=auto;html=1;exitX=0.25;exitY=0;exitDx=0;exitDy=0;entryX=0.5;entryY=0;entryDx=0;entryDy=0;dashed=1;" edge="1" parent="1" source="143" target="25"><mxGeometry relative="1" as="geometry"><Array as="points"><mxPoint x="841" y="-20"/><mxPoint x="457" y="-20"/></Array></mxGeometry></mxCell><mxCell id="143" value="SDF Graph" style="rounded=1;whiteSpace=wrap;html=1;fillColor=#d80073;strokeColor=#A50040;fontColor=#ffffff;fontStyle=3" vertex="1" parent="1"><mxGeometry x="821.5" y="110" width="76.85" height="30" as="geometry"/></mxCell><mxCell id="144" value="Events" style="text;html=1;strokeColor=none;fillColor=none;align=center;verticalAlign=middle;whiteSpace=wrap;rounded=0;" vertex="1" parent="1"><mxGeometry x="640" y="-20" width="40" height="20" as="geometry"/></mxCell><mxCell id="145" style="edgeStyle=orthogonalEdgeStyle;rounded=1;orthogonalLoop=1;jettySize=auto;html=1;exitX=0.1;exitY=0.5;exitDx=0;exitDy=0;exitPerimeter=0;endArrow=none;endFill=0;startArrow=none;startFill=0;" edge="1" parent="1" source="147" target="74"><mxGeometry relative="1" as="geometry"><Array as="points"><mxPoint x="370" y="940"/><mxPoint x="370" y="900"/></Array></mxGeometry></mxCell><mxCell id="146" value="" style="group" vertex="1" connectable="0" parent="1"><mxGeometry x="220" y="900" width="115" height="80" as="geometry"/></mxCell><mxCell id="147" value="" style="shape=curlyBracket;whiteSpace=wrap;html=1;rounded=1;flipH=1;fillColor=#BABABA;" vertex="1" parent="146"><mxGeometry x="95" y="25" width="20" height="30" as="geometry"/></mxCell><mxCell id="148" value="&lt;ul&gt;&lt;li&gt;Graphics&lt;/li&gt;&lt;/ul&gt;&lt;ul&gt;&lt;li&gt;Compute&lt;/li&gt;&lt;/ul&gt;" style="text;strokeColor=none;fillColor=none;html=1;whiteSpace=wrap;verticalAlign=middle;overflow=hidden;" vertex="1" parent="146"><mxGeometry width="90" height="80" as="geometry"/></mxCell><mxCell id="149" style="edgeStyle=orthogonalEdgeStyle;rounded=1;orthogonalLoop=1;jettySize=auto;html=1;exitX=0.5;exitY=1;exitDx=0;exitDy=0;entryX=0;entryY=0.5;entryDx=0;entryDy=0;startArrow=none;startFill=0;endArrow=block;endFill=1;dashed=1;strokeColor=#005200;" edge="1" parent="1" source="150" target="39"><mxGeometry relative="1" as="geometry"/></mxCell><mxCell id="150" value="GLSLang" style="rounded=0;whiteSpace=wrap;html=1;fillColor=#BABABA;" vertex="1" parent="1"><mxGeometry x="-10" y="349" width="120" height="50" as="geometry"/></mxCell><mxCell id="151" style="edgeStyle=orthogonalEdgeStyle;rounded=1;orthogonalLoop=1;jettySize=auto;html=1;exitX=0.5;exitY=1;exitDx=0;exitDy=0;entryX=0.5;entryY=0;entryDx=0;entryDy=0;dashed=1;startArrow=none;startFill=0;endArrow=block;endFill=1;strokeColor=#0000FF;" edge="1" parent="1" source="152" target="6"><mxGeometry relative="1" as="geometry"><Array as="points"/></mxGeometry></mxCell><mxCell id="152" value="Qt" style="rounded=0;whiteSpace=wrap;html=1;fillColor=#BABABA;fontStyle=1" vertex="1" parent="1"><mxGeometry x="470" y="-120" width="120" height="50" as="geometry"/></mxCell><mxCell id="153" value="" style="endArrow=none;html=1;startArrow=classic;startFill=1;endFill=0;" edge="1" parent="1"><mxGeometry x="-17" y="1151" width="50" height="50" as="geometry"><mxPoint x="20" y="1150" as="sourcePoint"/><mxPoint x="-20" y="1150" as="targetPoint"/></mxGeometry></mxCell><mxCell id="154" value="" style="endArrow=none;html=1;entryX=-0.075;entryY=-0.05;entryDx=0;entryDy=0;entryPerimeter=0;startArrow=open;startFill=0;endFill=0;dashed=1;" edge="1" parent="1"><mxGeometry x="-17" y="1171" width="50" height="50" as="geometry"><mxPoint x="20" y="1170" as="sourcePoint"/><mxPoint x="-20" y="1170" as="targetPoint"/></mxGeometry></mxCell><mxCell id="155" value="" style="endArrow=none;html=1;entryX=-0.075;entryY=-0.05;entryDx=0;entryDy=0;entryPerimeter=0;startArrow=block;startFill=1;endFill=0;dashed=1;strokeColor=#005200;" edge="1" parent="1"><mxGeometry x="-17" y="1191" width="50" height="50" as="geometry"><mxPoint x="20" y="1190" as="sourcePoint"/><mxPoint x="-20" y="1190" as="targetPoint"/></mxGeometry></mxCell><mxCell id="156" value="" style="rounded=0;whiteSpace=wrap;html=1;fillColor=#BABABA;" vertex="1" parent="1"><mxGeometry x="-20" y="1115" width="40" height="20" as="geometry"/></mxCell><mxCell id="157" value="" style="rounded=1;whiteSpace=wrap;html=1;dashed=1;fillColor=#BABABA;" vertex="1" parent="1"><mxGeometry x="-20" y="1085" width="40" height="20" as="geometry"/></mxCell><mxCell id="158" value="Direct Relation" style="text;html=1;strokeColor=none;fillColor=none;align=left;verticalAlign=middle;whiteSpace=wrap;rounded=0;" vertex="1" parent="1"><mxGeometry x="31" y="1139" width="90" height="20" as="geometry"/></mxCell><mxCell id="159" value="Indirect/Hidden Relation" style="text;html=1;strokeColor=none;fillColor=none;align=left;verticalAlign=middle;whiteSpace=wrap;rounded=0;" vertex="1" parent="1"><mxGeometry x="31" y="1159" width="140" height="20" as="geometry"/></mxCell><mxCell id="160" value="Direct Library Relation" style="text;html=1;strokeColor=none;fillColor=none;align=left;verticalAlign=middle;whiteSpace=wrap;rounded=0;" vertex="1" parent="1"><mxGeometry x="31" y="1179" width="130" height="20" as="geometry"/></mxCell><mxCell id="161" value="Library/SDK" style="text;html=1;strokeColor=none;fillColor=none;align=left;verticalAlign=middle;whiteSpace=wrap;rounded=0;" vertex="1" parent="1"><mxGeometry x="31" y="1115" width="78" height="20" as="geometry"/></mxCell><mxCell id="162" value="Library/External Functionality" style="text;html=1;strokeColor=none;fillColor=none;align=left;verticalAlign=middle;whiteSpace=wrap;rounded=0;" vertex="1" parent="1"><mxGeometry x="31" y="1085" width="80" height="20" as="geometry"/></mxCell><mxCell id="163" value="" style="rounded=1;whiteSpace=wrap;html=1;fillColor=#d80073;strokeColor=#A50040;fontColor=#ffffff;" vertex="1" parent="1"><mxGeometry x="-20" y="1056" width="40" height="20" as="geometry"/></mxCell><mxCell id="164" value="Main Class" style="text;html=1;strokeColor=none;fillColor=none;align=left;verticalAlign=middle;whiteSpace=wrap;rounded=0;" vertex="1" parent="1"><mxGeometry x="31" y="1056" width="66" height="20" as="geometry"/></mxCell><mxCell id="165" value="" style="shape=flexArrow;endArrow=none;startArrow=classic;html=1;dashed=1;entryX=0;entryY=0.5;entryDx=0;entryDy=0;exitX=1;exitY=0.5;exitDx=0;exitDy=0;fillColor=#BABABA;endFill=0;" edge="1" parent="1" source="15" target="152"><mxGeometry width="100" height="100" relative="1" as="geometry"><mxPoint x="310" y="-50" as="sourcePoint"/><mxPoint x="410" y="-150" as="targetPoint"/></mxGeometry></mxCell><mxCell id="166" value="" style="shape=flexArrow;endArrow=classic;startArrow=none;html=1;dashed=1;exitX=1;exitY=0.5;exitDx=0;exitDy=0;fillColor=#BABABA;startFill=0;" edge="1" parent="1" source="152" target="18"><mxGeometry width="100" height="100" relative="1" as="geometry"><mxPoint x="620" y="-100" as="sourcePoint"/><mxPoint x="720" y="-200" as="targetPoint"/></mxGeometry></mxCell><mxCell id="167" value="Update" style="text;html=1;strokeColor=none;fillColor=none;align=center;verticalAlign=middle;whiteSpace=wrap;rounded=0;rotation=90;" vertex="1" parent="1"><mxGeometry x="290" y="562" width="40" height="20" as="geometry"/></mxCell><mxCell id="168" value="Compile" style="shape=parallelogram;perimeter=parallelogramPerimeter;whiteSpace=wrap;html=1;fixedSize=1;" vertex="1" parent="1"><mxGeometry x="380" y="1023.75" width="99" height="42.5" as="geometry"/></mxCell><mxCell id="169" style="edgeStyle=orthogonalEdgeStyle;rounded=1;orthogonalLoop=1;jettySize=auto;html=1;exitX=1;exitY=0.75;exitDx=0;exitDy=0;entryX=0;entryY=0.5;entryDx=0;entryDy=0;endArrow=classic;endFill=1;" edge="1" parent="1" source="170" target="42"><mxGeometry relative="1" as="geometry"/></mxCell><mxCell id="170" value="&lt;span&gt;Recreate&lt;/span&gt;&lt;br&gt;&lt;span&gt;SDFR&lt;/span&gt;&lt;br&gt;&lt;span&gt;Pipeline&lt;/span&gt;" style="rounded=1;whiteSpace=wrap;html=1;dashed=1;fillColor=#1EB6FF;strokeColor=#006EAF;" vertex="1" parent="1"><mxGeometry x="507" y="384.5" width="60" height="67.5" as="geometry"/></mxCell><mxCell id="171" value="Graphics&lt;br&gt;Pipeline&lt;br&gt;ONLY" style="text;html=1;strokeColor=none;fillColor=none;align=center;verticalAlign=middle;whiteSpace=wrap;rounded=0;" vertex="1" parent="1"><mxGeometry x="513" y="835" width="40" height="20" as="geometry"/></mxCell></root></mxGraphModel></diagram></mxfile>